<?xml version="1.0" standalone="no"?>
<!DOCTYPE svg PUBLIC "-//W3C//DTD SVG 1.1//EN" "http://www.w3.org/Graphics/SVG/1.1/DTD/svg11.dtd" >
<svg xmlns="http://www.w3.org/2000/svg">
<metadata>Generated by IcoMoon</metadata>
<defs>
<font id="icomoon" horiz-adv-x="1024">
<font-face units-per-em="1024" ascent="960" descent="-64" />
<missing-glyph horiz-adv-x="1024" />
<glyph unicode="&#x20;" horiz-adv-x="512" d="" />
<glyph unicode="&#xe900;" glyph-name="available" d="M512.003 944c-274.216 0-496-221.784-496-496s221.784-496 496-496c274.21 0 495.994 221.784 495.994 496s-221.784 496-495.994 496zM265.42 365.808c-45.457 0-82.193 36.735-82.193 82.193 0 45.451 36.735 82.193 82.193 82.193s82.193-36.735 82.193-82.193c0-45.463-36.741-82.193-82.193-82.193zM512.003 365.808c-45.451 0-82.193 36.735-82.193 82.193 0 45.451 36.741 82.193 82.193 82.193 45.457 0 82.186-36.735 82.186-82.193 0-45.463-36.735-82.193-82.186-82.193zM758.581 365.808c-45.451 0-82.193 36.735-82.193 82.193 0 45.451 36.741 82.193 82.193 82.193 45.383 0 82.193-36.735 82.193-82.193 0-45.463-36.81-82.193-82.193-82.193z" />
<glyph unicode="&#xe901;" glyph-name="offline" d="M512 944c-273.934 0-496-222.066-496-496s222.066-496 496-496c273.935 0 496 222.065 496 496s-222.066 496-496 496v0zM724.702 299.597c17.757-17.756 17.757-46.544 0-64.301s-46.544-17.756-64.301 0l-148.403 148.403-148.402-148.403c-17.757-17.756-46.544-17.756-64.301 0s-17.757 46.545 0 64.301l148.402 148.403-148.402 148.403c-17.757 17.756-17.757 46.544 0 64.3s46.544 17.757 64.301 0l148.402-148.402 148.403 148.402c17.757 17.757 46.544 17.757 64.301 0s17.757-46.544 0-64.3l-148.403-148.403 148.403-148.403z" />
<glyph unicode="&#xe902;" glyph-name="forbidden" d="M831.528 767.527c-176.471 176.473-462.587 176.473-639.058 0.002s-176.471-462.587 0-639.060c176.472-176.471 462.588-176.471 639.058 0s176.47 462.587 0 639.058zM286.102 391.516v112.972h451.838v-112.972h-451.838z" />
<glyph unicode="&#xe903;" glyph-name="running" d="M511.999 943.999c-273.945 0-495.999-222.026-495.999-496.001 0-273.914 222.054-495.998 495.999-495.998s496.001 222.085 496.001 495.998c0 273.975-222.054 496.001-496.001 496.001zM419.001 137.998l-205.375 267.375 91.061 94.937 114.343-145.312 358.468 292.561 44.562-44.562-403.060-465.001z" />
<glyph unicode="&#xe904;" glyph-name="set" horiz-adv-x="992" d="M864.044 546.786c-8.735 32.373-21.582 63.201-38.024 91.721l72.192 108.936-102.773 102.773-108.936-72.192c-28.519 16.442-59.093 29.287-91.721 38.024l-25.953 127.95h-145.678l-25.953-127.95c-32.373-8.735-63.201-21.582-91.721-38.024l-108.936 72.192-102.773-102.773 72.192-108.936c-16.442-28.519-29.287-59.093-38.024-91.721l-127.95-25.953v-145.678l127.95-25.953c8.735-32.373 21.582-63.201 38.024-91.721l-72.192-108.936 102.773-102.773 108.936 72.192c28.519-16.442 59.093-29.287 91.721-38.024l25.953-127.95h145.678l25.953 127.95c32.373 8.735 63.201 21.582 91.721 38.024l108.936-72.192 102.773 102.773-72.192 108.936c16.442 28.519 29.287 59.093 38.024 91.721l127.95 25.953v145.678l-127.95 25.953zM668.271 448.128c0-95.061-77.076-172.399-172.399-172.399-95.061 0-172.399 77.076-172.399 172.399 0 95.061 77.076 172.399 172.399 172.399 95.061 0 172.399-77.333 172.399-172.399z" />
<glyph unicode="&#xe905;" glyph-name="wrench" d="M55.047-17.279c49.184-49.184 129.074-49.184 178.257 0l338.818 338.818c115.541-46.58 252.681-22.9 346.365 70.784 83.534 83.534 111.377 201.938 83.014 308.632l-194.651-194.391-224.318 224.318 195.952 195.952c-107.734 30.186-227.961 2.863-312.795-81.711-93.161-93.161-116.845-229.781-71.045-344.802l-339.598-339.34c-49.184-49.184-49.184-129.074 0-178.257z" />
<glyph unicode="&#xe906;" glyph-name="usb" d="M644.45 723.53v176.458c0 24.382-19.628 44.012-44.012 44.012h-176.458c-24.382 0-44.218-20.043-44.012-44.218v-176.249h-0.207c-48.557 0-88.021-39.672-88.228-88.228v-595.077c0-48.969 39.672-88.228 88.228-88.228h264.478c48.969 0 88.228 39.672 88.228 88.228v595.077c0 48.969-39.464 88.228-88.021 88.228zM545.271 855.769c0 12.189 9.918 21.903 21.903 21.903 12.189 0 21.903-9.918 21.903-21.903v-44.012c0-12.189-9.918-21.903-21.903-21.903-12.189 0-21.903 9.918-21.903 21.903v44.012zM435.141 855.769c0 12.189 9.918 21.903 21.903 21.903 12.189 0 21.903-9.918 21.903-21.903v-44.012c0-12.189-9.918-21.903-21.903-21.903-12.189 0-21.903 9.918-21.903 21.903v44.012zM622.548 73.697h-220.467c-12.189 0-21.903 9.918-21.903 21.903-0.207 11.777 9.918 21.903 21.903 21.903h220.467c12.189 0 21.903-9.918 21.903-21.903 0-12.189-9.711-21.903-21.903-21.903z" />
<glyph unicode="&#xe907;" glyph-name="link" d="M437.221 349.165c-13.031 0-26.061 4.918-35.895 14.998-92.934 92.934-92.934 244.383 0 337.563l187.835 187.835c44.992 44.992 104.981 69.824 168.659 69.824s123.666-24.832 168.659-69.824c92.934-92.934 92.934-244.383 0-337.563l-85.805-85.805c-19.914-19.914-52.122-19.914-72.037 0s-19.914 52.122 0 72.037l85.805 85.805c53.351 53.351 53.351 140.139 0 193.735-25.815 25.815-60.235 40.075-96.868 40.075s-71.053-14.26-96.868-40.075l-187.835-187.835c-53.351-53.351-53.351-140.139 0-193.735 19.914-19.914 19.914-52.122 0-72.037-9.588-10.080-22.619-14.998-35.649-14.998v0zM257.007-18.884c-63.678 0-123.666 24.832-168.659 69.824-92.934 92.934-92.934 244.383 0 337.563l85.805 85.805c19.914 19.914 52.122 19.914 72.037 0s19.914-52.122 0-72.037l-85.805-85.805c-53.351-53.351-53.351-140.139 0-193.735 25.815-25.815 60.235-40.075 96.868-40.075s71.053 14.26 96.868 40.075l187.835 187.835c53.351 53.351 53.351 140.139 0 193.735-19.914 19.914-19.914 52.122 0 72.037s52.122 19.914 72.037 0c92.934-92.934 92.934-244.383 0-337.563l-187.835-187.835c-45.484-44.992-105.473-69.824-169.15-69.824v0z" />
<glyph unicode="&#xe908;" glyph-name="folder" d="M905.485 77.631c0-32.769-26.673-59.442-59.442-59.442h-742.77l103.896 490.015c0 32.769 26.418 59.442 59.188 59.442h683.328c32.769 0 59.442-26.673 59.442-59.442l-103.642-430.573zM222.157 612.354h668.34v58.425c0 32.769-26.673 59.442-59.442 59.442h-356.397v53.853c0 32.769-26.673 59.442-59.442 59.442h-296.956c-32.769 0-59.442-26.673-59.442-59.442v-706.19l103.896 475.281c0 32.516 26.673 59.188 59.442 59.188v0 0z" />
<glyph unicode="&#xe909;" glyph-name="file" d="M565.873 925.086v-310.616h310.616l-310.616 310.616zM529.714 584.137v355.026h-293.145c-29.363 0-53.388-23.782-53.388-53.388v-853.224c0-29.363 23.782-53.388 53.388-53.388h586.533c29.363 0 53.388 23.782 53.388 53.388v551.588h-346.776z" />
<glyph unicode="&#xe90a;" glyph-name="disk" d="M570.144 563.273c0 29.453-23.867 53.32-53.32 53.32s-53.32-23.867-53.32-53.32c0-29.453 23.867-53.32 53.32-53.32s53.32 23.867 53.32 53.32v0zM185.986 958.096c-58.906 0-106.64-47.734-106.64-106.64v-810.72c0-58.906 47.734-106.64 106.64-106.64h661.423c58.906 0 106.64 47.734 106.64 106.64v810.72c0 58.906-47.734 106.64-106.64 106.64h-661.423zM516.824 851.455c159.199 0 287.929-128.984 287.929-287.929 0-83.027-35.039-157.929-91.406-210.487-28.691 21.836-55.605 43.164-71.093 58.652-45.957 45.957-120.097 45.957-166.054 0-34.785-34.785-43.164-86.074-25.137-128.984-127.714 29.707-222.421 143.964-222.421 280.565 0 159.199 128.984 288.182 288.182 288.182v0zM185.986 93.802c0 29.453 23.867 53.32 53.32 53.32s53.32-23.867 53.32-53.32c0-29.453-23.867-53.32-53.32-53.32s-53.32 23.867-53.32 53.32v0zM537.137 351.008c12.695 12.949 33.515 12.949 46.465 0 7.363-7.617 217.343-155.39 241.464-179.765 29.961-29.961 29.961-78.457 0-108.418s-78.203-29.961-108.418 0c-25.644 25.644-172.656 234.608-179.765 241.464-12.695 13.203-12.695 34.023 0.254 46.719v0z" />
<glyph unicode="&#xe971;" glyph-name="user" d="M576 253.388v52.78c70.498 39.728 128 138.772 128 237.832 0 159.058 0 288-192 288s-192-128.942-192-288c0-99.060 57.502-198.104 128-237.832v-52.78c-217.102-17.748-384-124.42-384-253.388h896c0 128.968-166.898 235.64-384 253.388z" />
<glyph unicode="&#xe9b6;" glyph-name="switch" d="M640 813.413v-135.959c36.206-15.803 69.499-38.408 98.274-67.179 60.441-60.44 93.726-140.8 93.726-226.274s-33.287-165.833-93.726-226.274c-60.44-60.44-140.798-93.726-226.274-93.726s-165.833 33.287-226.274 93.726c-60.44 60.44-93.726 140.8-93.726 226.274s33.287 165.833 93.726 226.274c28.775 28.775 62.069 51.378 98.274 67.182v135.957c-185.048-55.080-320-226.472-320-429.413 0-247.424 200.578-448 448-448 247.424 0 448 200.576 448 448 0 202.939-134.951 374.331-320 429.413zM448 960h128v-512h-128z" />
<glyph unicode="&#xe9c1;" glyph-name="cloud" d="M1024 302.458c0 82.090-56.678 150.9-132.996 169.48-3.242 128.7-108.458 232.062-237.862 232.062-75.792 0-143.266-35.494-186.854-90.732-24.442 31.598-62.69 51.96-105.708 51.96-73.81 0-133.642-59.874-133.642-133.722 0-6.436 0.48-12.76 1.364-18.954-11.222 2.024-22.766 3.138-34.57 3.138-106.998 0.002-193.732-86.786-193.732-193.842 0-107.062 86.734-193.848 193.73-193.848l656.262 0.012c96.138 0.184 174.008 78.212 174.008 174.446z" />
<glyph unicode="&#xea0a;" glyph-name="plus" d="M992 576h-352v352c0 17.671-14.329 32-32 32h-192c-17.671 0-32-14.329-32-32v-352h-352c-17.671 0-32-14.329-32-32v-192c0-17.671 14.329-32 32-32h352v-352c0-17.671 14.329-32 32-32h192c17.671 0 32 14.329 32 32v352h352c17.671 0 32 14.329 32 32v192c0 17.671-14.329 32-32 32z" />
<glyph unicode="&#xea0b;" glyph-name="minus" d="M0 544v-192c0-17.672 14.328-32 32-32h960c17.672 0 32 14.328 32 32v192c0 17.672-14.328 32-32 32h-960c-17.672 0-32-14.328-32-32z" />
<glyph unicode="&#xea0c;" glyph-name="info" d="M448 656c0 26.4 21.6 48 48 48h32c26.4 0 48-21.6 48-48v-32c0-26.4-21.6-48-48-48h-32c-26.4 0-48 21.6-48 48v32zM640 192h-256v64h64v192h-64v64h192v-256h64zM512 960c-282.77 0-512-229.23-512-512s229.23-512 512-512 512 229.23 512 512-229.23 512-512 512zM512 32c-229.751 0-416 186.249-416 416s186.249 416 416 416 416-186.249 416-416-186.249-416-416-416z" />
<glyph unicode="&#xea0f;" glyph-name="cross" d="M1014.662 137.34c-0.004 0.004-0.008 0.008-0.012 0.010l-310.644 310.65 310.644 310.65c0.004 0.004 0.008 0.006 0.012 0.010 3.344 3.346 5.762 7.254 7.312 11.416 4.246 11.376 1.824 24.682-7.324 33.83l-146.746 146.746c-9.148 9.146-22.45 11.566-33.828 7.32-4.16-1.55-8.070-3.968-11.418-7.31 0-0.004-0.004-0.006-0.008-0.010l-310.648-310.652-310.648 310.65c-0.004 0.004-0.006 0.006-0.010 0.010-3.346 3.342-7.254 5.76-11.414 7.31-11.38 4.248-24.682 1.826-33.83-7.32l-146.748-146.748c-9.148-9.148-11.568-22.452-7.322-33.828 1.552-4.16 3.97-8.072 7.312-11.416 0.004-0.002 0.006-0.006 0.010-0.010l310.65-310.648-310.65-310.652c-0.002-0.004-0.006-0.006-0.008-0.010-3.342-3.346-5.76-7.254-7.314-11.414-4.248-11.376-1.826-24.682 7.322-33.83l146.748-146.746c9.15-9.148 22.452-11.568 33.83-7.322 4.16 1.552 8.070 3.97 11.416 7.312 0.002 0.004 0.006 0.006 0.010 0.010l310.648 310.65 310.648-310.65c0.004-0.002 0.008-0.006 0.012-0.008 3.348-3.344 7.254-5.762 11.414-7.314 11.378-4.246 24.684-1.826 33.828 7.322l146.746 146.748c9.148 9.148 11.57 22.454 7.324 33.83-1.552 4.16-3.97 8.068-7.314 11.414z" />
<glyph unicode="&#xea10;" glyph-name="ok" d="M864 832l-480-480-224 224-160-160 384-384 640 640z" />
<glyph unicode="&#xea32;" glyph-name="arrow-up" d="M512 943.483l-495.483-495.483h297.289v-528.517h396.388v528.517h297.289z" />
<glyph unicode="&#xea36;" glyph-name="arrow-down" d="M512-47.483l495.483 495.483h-297.289v528.517h-396.388v-528.517h-297.289z" />
</font>
</defs>
</svg>
